<?xml version="1.0" encoding="utf-8"?>
<!-- Generator: Adobe Illustrator 16.0.0, SVG Export Plug-In . SVG Version: 6.00 Build 0)  -->
<!DOCTYPE svg PUBLIC "-//W3C//DTD SVG 1.1//EN" "http://www.w3.org/Graphics/SVG/1.1/DTD/svg11.dtd">
<svg version="1.1" id="Layer_1" xmlns="http://www.w3.org/2000/svg" xmlns:xlink="http://www.w3.org/1999/xlink" x="0px" y="0px"
	 width="240px" height="30px" viewBox="0 0 240 30" enable-background="new 0 0 240 30" xml:space="preserve">
<g id="shari" display="none">
	<circle display="inline" fill="#282928" cx="15" cy="15" r="15"/>
	<circle display="inline" fill="#282928" cx="45" cy="15" r="15"/>
	<circle display="inline" fill="#282928" cx="75" cy="15" r="15"/>
	<circle display="inline" fill="#282928" cx="105" cy="15" r="15"/>
	<circle display="inline" fill="#282928" cx="135" cy="15" r="15"/>
	<circle display="inline" fill="#282928" cx="165.176" cy="15" r="15"/>
	<circle display="inline" fill="#282928" cx="195" cy="15" r="15"/>
	<circle display="inline" fill="#282928" cx="225" cy="15" r="15"/>
</g>
<g id="Layer_1_1_">
	<g id="Layer_2">
	</g>
	<g>
		<path fill="#FFFFFF" d="M81.271,10.57c0.676-0.405,1.194-1.045,1.439-1.81c-0.632,0.375-1.332,0.647-2.077,0.794
			c-0.596-0.635-1.446-1.033-2.387-1.033c-1.806,0-3.271,1.464-3.271,3.271c0,0.256,0.029,0.506,0.085,0.744
			c-2.719-0.136-5.129-1.438-6.742-3.417c-0.282,0.483-0.443,1.045-0.443,1.646c0,1.135,0.654,2.135,1.532,2.723
			C68.869,13.471,68,13.322,68,13.077c0,0.015,0,0.027,0,0.042c0,1.584,1.051,2.906,2.548,3.207c-0.275,0.074-0.601,0.115-0.9,0.115
			c-0.211,0-0.435-0.021-0.634-0.06c0.416,1.3,1.614,2.244,3.046,2.271c-1.119,0.877-2.534,1.4-4.067,1.4
			c-0.264,0-0.526-0.017-0.782-0.046c1.448,0.929,3.166,1.472,5.013,1.472c6.016,0,9.305-4.984,9.305-9.308
			c0-0.143-0.003-0.283-0.009-0.424c0.639-0.461,1.194-1.037,1.632-1.692C82.564,10.314,81.933,10.49,81.271,10.57z"/>
	</g>
	<g>
		<path fill="#FFFFFF" d="M107.977,14.484c0,0,1.754-0.25,1.754-2.306c0-2.055-1.435-3.178-3.25-3.178h-3.344h-0.098H101v12h2.038
			h0.098h3.344c0,0,3.648-0.021,3.648-3.527C110.128,17.473,110.288,14.484,107.977,14.484z M103,11h3.049h0.43
			c0,0,0.813,0.218,0.813,1.413c0,1.195-0.479,1.587-1.021,1.587H103V11z M106.311,18.842c-0.088,0.002-0.162,0.158-0.213,0.158H103
			v-3h3.48c0,0,1.211-0.13,1.211,1.464C107.689,18.807,106.786,18.832,106.311,18.842z"/>
	</g>
	<g>
		<path fill="#FFFFFF" d="M139.504,15.973c-0.357-0.571-1.111-0.742-1.682-0.384c-1.704,1.072-3.899,1.072-5.602,0
			c-0.57-0.358-1.324-0.188-1.684,0.384c-0.357,0.569-0.188,1.321,0.382,1.682c0.752,0.473,1.567,0.809,2.417,1l-2.324,2.328
			c-0.479,0.477-0.479,1.248,0,1.725c0.236,0.236,0.551,0.355,0.86,0.355s0.625-0.119,0.86-0.355l2.285-2.287l2.287,2.287
			c0.479,0.477,1.248,0.477,1.727,0c0.477-0.477,0.477-1.248,0-1.725l-2.327-2.328c0.849-0.191,1.664-0.527,2.417-1
			C139.691,17.294,139.863,16.542,139.504,15.973z"/>
		<path fill="#FFFFFF" d="M135.021,15.259c2.295,0,4.162-1.866,4.162-4.161s-1.867-4.162-4.162-4.162s-4.162,1.867-4.162,4.162
			S132.727,15.259,135.021,15.259z M135.021,9.375c0.949,0,1.723,0.773,1.723,1.723c0,0.949-0.773,1.722-1.723,1.722
			c-0.951,0-1.726-0.773-1.726-1.722C133.298,10.148,134.072,9.375,135.021,9.375z"/>
	</g>
	<g>
		<path fill="#FFFFFF" d="M199.285,8h-8.657C189.125,8,188,9.386,188,10.889v2.88v5.777c0,1.504,1.125,2.454,2.628,2.454h8.657
			c1.504,0,2.715-0.95,2.715-2.454V13.77v-2.88C202,9.386,200.789,8,199.285,8z M199.878,9.789L200,9.788v0.311v2.081l-2.193,0.008
			l-0.009-2.391L199.878,9.789z M192.943,13.77c0.451-0.625,1.184-1.036,2.014-1.036c0.829,0,1.563,0.411,2.014,1.036
			c0.295,0.408,0.471,0.907,0.471,1.448c0,1.369-1.113,2.483-2.482,2.483s-2.482-1.114-2.482-2.483
			C192.475,14.677,192.648,14.177,192.943,13.77z M201,19.546c0,0.746-0.969,1.454-1.715,1.454h-8.657
			c-0.745,0-1.628-0.708-1.628-1.454V14h2.383c-0.182,0-0.283,0.82-0.283,1.333c0,2.127,1.729,3.801,3.857,3.801
			s3.857-1.646,3.857-3.772c0-0.513-0.104-1.362-0.285-1.362H201V19.546z"/>
	</g>
	<g>
		<path fill="#FFFFFF" d="M16,10.479c0-0.624,0.581-0.429,0.873-0.429s2.127,0,2.127,0V6.96l-2.552-0.01
			C13.709,6.95,13,8.999,13,10.312v1.738h-2v3h2c0,4,0,8,0,8h3c0,0,0-4,0-8h2.415l0.292-3H16V10.479z"/>
	</g>
	<path fill="#FFFFFF" d="M231.387,8.888l0.004-0.005l-0.002-0.001c0.008-0.046,0.01-0.091,0.01-0.139
		c0-0.605-0.49-1.097-1.096-1.097c-0.211,0-0.551,0.063-0.836,0.188l-11.928,4.346l0,0c-0.451,0.137-0.938,0.554-0.938,1.05
		c0,0.178-0.017,0.187,0.119,0.496c0.518,1.186,5.041,2.584,5.475,3.018c0.436,0.434,2.168,4.299,2.563,4.826
		c0.434,0.584,0.654,0.783,1.037,0.783c0.418,0,0.803-0.242,0.975-0.595C226.941,21.407,231.199,10.699,231.387,8.888z"/>
</g>
<g id="Layer_2_1_">
	<g>
		<g>
			<path fill="#FFFFFF" d="M42.691,13.868v2.263c0,0,2.197-0.002,3.091-0.002c-0.484,1.469-1.238,2.268-3.091,2.268
				c-1.875,0-3.34-1.519-3.34-3.396c0-1.874,1.465-3.396,3.34-3.396c0.992,0,1.633,0.348,2.22,0.835
				c0.471-0.471,0.431-0.539,1.627-1.668c-1.015-0.924-2.366-1.489-3.848-1.489c-3.157,0-5.716,2.562-5.716,5.718
				c0,3.158,2.559,5.718,5.716,5.718c4.719,0,5.874-4.11,5.491-6.85C47.065,13.868,42.691,13.868,42.691,13.868z M52.995,13.981
				v-1.98H51.58v1.98h-2.038v1.415h2.038v2.038h1.415v-2.038h1.98v-1.415H52.995z"/>
		</g>
	</g>
	<g>
		<path id="The_Sharpness_1_" opacity="0.12" enable-background="new    " d="M163.523,12.579l3.791,2.532l0.531-0.277
			L163.523,12.579z"/>
		<g id="Lozenge_3_">
			<g>
				<path fill="#FFFFFF" d="M173.016,11.8c0,0-0.156-1.102-0.637-1.587c-0.607-0.638-1.289-0.641-1.604-0.679
					c-2.238-0.161-5.596-0.161-5.596-0.161h-0.009c0,0-3.356,0-5.596,0.161c-0.313,0.038-0.996,0.041-1.604,0.679
					c-0.479,0.485-0.636,1.587-0.636,1.587s-0.16,1.295-0.16,2.59v1.215c0,1.295,0.16,2.588,0.16,2.588s0.156,1.104,0.636,1.589
					c0.608,0.639,1.407,0.618,1.766,0.686c1.279,0.123,5.438,0.16,5.438,0.16s3.361-0.006,5.601-0.168
					c0.313-0.037,0.996-0.039,1.604-0.678c0.48-0.484,0.637-1.589,0.637-1.589s0.16-1.293,0.16-2.588V14.39
					C173.176,13.095,173.016,11.8,173.016,11.8z M163.523,17.076v-4.497l4.322,2.255L163.523,17.076z"/>
			</g>
		</g>
	</g>
</g>
</svg>
